<mxfile host="app.diagrams.net" agent="Mozilla/5.0 (Windows NT 10.0; Win64; x64) AppleWebKit/537.36 (KHTML, like Gecko) Chrome/126.0.0.0 Safari/537.36" version="25.0.3">
  <diagram name="Page-1" id="rcEOddBFLMDAnJlCYJu9">
    <mxGraphModel dx="2759" dy="1044" grid="1" gridSize="10" guides="1" tooltips="1" connect="1" arrows="1" fold="1" page="1" pageScale="1" pageWidth="850" pageHeight="1100" math="0" shadow="0">
      <root>
        <mxCell id="0" />
        <mxCell id="1" parent="0" />
        <mxCell id="lWtACIqkjUSFrE5aZ776-2" value="User" style="swimlane;whiteSpace=wrap;html=1;" vertex="1" parent="1">
          <mxGeometry x="35" y="120" width="140" height="260" as="geometry" />
        </mxCell>
        <mxCell id="lWtACIqkjUSFrE5aZ776-3" value="+ id&lt;div&gt;&lt;br&gt;&lt;div&gt;+ firstname&lt;/div&gt;&lt;div&gt;&lt;br&gt;&lt;/div&gt;&lt;div&gt;+ lastname&lt;/div&gt;&lt;div&gt;&lt;br&gt;&lt;/div&gt;&lt;div&gt;+ email&lt;/div&gt;&lt;div&gt;&lt;br&gt;&lt;/div&gt;&lt;div&gt;+ password&lt;/div&gt;&lt;div&gt;&lt;br&gt;&lt;/div&gt;&lt;div&gt;+ accountLocked&lt;/div&gt;&lt;div&gt;&lt;br&gt;&lt;/div&gt;&lt;div&gt;+ enabled&lt;/div&gt;&lt;div&gt;&lt;br&gt;&lt;/div&gt;&lt;/div&gt;" style="text;strokeColor=none;align=left;fillColor=none;html=1;verticalAlign=middle;whiteSpace=wrap;rounded=0;fontSize=13;spacingTop=0;spacing=2;strokeWidth=1;spacingBottom=0;horizontal=1;" vertex="1" parent="lWtACIqkjUSFrE5aZ776-2">
          <mxGeometry x="5" y="30" width="130" height="230" as="geometry" />
        </mxCell>
        <mxCell id="lWtACIqkjUSFrE5aZ776-21" style="edgeStyle=orthogonalEdgeStyle;rounded=0;orthogonalLoop=1;jettySize=auto;html=1;entryX=0.5;entryY=1;entryDx=0;entryDy=0;endArrow=ERmany;endFill=0;startArrow=ERone;startFill=0;" edge="1" parent="1" source="lWtACIqkjUSFrE5aZ776-5" target="lWtACIqkjUSFrE5aZ776-17">
          <mxGeometry relative="1" as="geometry" />
        </mxCell>
        <mxCell id="lWtACIqkjUSFrE5aZ776-5" value="Role" style="swimlane;whiteSpace=wrap;html=1;" vertex="1" parent="1">
          <mxGeometry x="285" y="540" width="140" height="90" as="geometry" />
        </mxCell>
        <mxCell id="lWtACIqkjUSFrE5aZ776-6" value="+ id&lt;div&gt;&lt;br&gt;&lt;div&gt;+ name&lt;/div&gt;&lt;/div&gt;" style="text;strokeColor=none;align=left;fillColor=none;html=1;verticalAlign=middle;whiteSpace=wrap;rounded=0;fontSize=13;spacingTop=0;spacing=2;strokeWidth=1;spacingBottom=0;horizontal=1;" vertex="1" parent="lWtACIqkjUSFrE5aZ776-5">
          <mxGeometry x="10" y="20" width="130" height="70" as="geometry" />
        </mxCell>
        <mxCell id="lWtACIqkjUSFrE5aZ776-7" value="Token" style="swimlane;whiteSpace=wrap;html=1;" vertex="1" parent="1">
          <mxGeometry x="45" y="490" width="120" height="200" as="geometry" />
        </mxCell>
        <mxCell id="lWtACIqkjUSFrE5aZ776-8" value="+ id&lt;div&gt;&lt;br&gt;&lt;div&gt;+ token&lt;/div&gt;&lt;div&gt;&lt;br&gt;&lt;/div&gt;&lt;div&gt;+ createdAt&lt;/div&gt;&lt;div&gt;&lt;br&gt;&lt;/div&gt;&lt;div&gt;+ expiresAt&lt;/div&gt;&lt;div&gt;&lt;br&gt;&lt;/div&gt;&lt;div&gt;+ validatedAt&lt;/div&gt;&lt;div&gt;&lt;br&gt;&lt;/div&gt;&lt;/div&gt;" style="text;strokeColor=none;align=left;fillColor=none;html=1;verticalAlign=middle;whiteSpace=wrap;rounded=0;fontSize=13;spacingTop=0;spacing=2;strokeWidth=1;spacingBottom=0;horizontal=1;" vertex="1" parent="lWtACIqkjUSFrE5aZ776-7">
          <mxGeometry x="10" y="30" width="130" height="160" as="geometry" />
        </mxCell>
        <mxCell id="lWtACIqkjUSFrE5aZ776-23" style="edgeStyle=orthogonalEdgeStyle;rounded=0;orthogonalLoop=1;jettySize=auto;html=1;entryX=0.5;entryY=0;entryDx=0;entryDy=0;startArrow=ERone;startFill=0;endArrow=ERone;endFill=0;" edge="1" parent="1" source="lWtACIqkjUSFrE5aZ776-9" target="lWtACIqkjUSFrE5aZ776-14">
          <mxGeometry relative="1" as="geometry" />
        </mxCell>
        <mxCell id="lWtACIqkjUSFrE5aZ776-9" value="Swimmers" style="swimlane;whiteSpace=wrap;html=1;" vertex="1" parent="1">
          <mxGeometry x="-405" y="120" width="140" height="210" as="geometry" />
        </mxCell>
        <mxCell id="lWtACIqkjUSFrE5aZ776-10" value="+ id&lt;div&gt;&lt;br&gt;&lt;div&gt;+ firstname&lt;/div&gt;&lt;div&gt;&lt;br&gt;&lt;/div&gt;&lt;div&gt;+ lastname&lt;/div&gt;&lt;div&gt;&lt;br&gt;&lt;/div&gt;&lt;div&gt;+ dateOfBirth&lt;/div&gt;&lt;div&gt;&lt;br&gt;&lt;/div&gt;&lt;div&gt;+ email&lt;/div&gt;&lt;div&gt;&lt;br&gt;&lt;/div&gt;&lt;div&gt;+ trainingStatus&lt;/div&gt;&lt;div&gt;&lt;br&gt;&lt;/div&gt;&lt;/div&gt;" style="text;strokeColor=none;align=left;fillColor=none;html=1;verticalAlign=middle;whiteSpace=wrap;rounded=0;fontSize=13;spacingTop=0;spacing=2;strokeWidth=1;spacingBottom=0;horizontal=1;" vertex="1" parent="lWtACIqkjUSFrE5aZ776-9">
          <mxGeometry x="10" y="30" width="130" height="180" as="geometry" />
        </mxCell>
        <mxCell id="lWtACIqkjUSFrE5aZ776-24" style="edgeStyle=orthogonalEdgeStyle;rounded=0;orthogonalLoop=1;jettySize=auto;html=1;entryX=0.5;entryY=1;entryDx=0;entryDy=0;startArrow=ERone;startFill=0;endArrow=ERone;endFill=0;" edge="1" parent="1" source="lWtACIqkjUSFrE5aZ776-12" target="lWtACIqkjUSFrE5aZ776-14">
          <mxGeometry relative="1" as="geometry" />
        </mxCell>
        <mxCell id="lWtACIqkjUSFrE5aZ776-12" value="Trainers" style="swimlane;whiteSpace=wrap;html=1;" vertex="1" parent="1">
          <mxGeometry x="-405" y="460" width="140" height="210" as="geometry" />
        </mxCell>
        <mxCell id="lWtACIqkjUSFrE5aZ776-13" value="+ id&lt;div&gt;&lt;br&gt;&lt;div&gt;+ firstname&lt;/div&gt;&lt;div&gt;&lt;br&gt;&lt;/div&gt;&lt;div&gt;+ lastname&lt;/div&gt;&lt;div&gt;&lt;br&gt;&lt;/div&gt;&lt;div&gt;+ email&lt;/div&gt;&lt;div&gt;&lt;br&gt;&lt;/div&gt;&lt;div&gt;+ phoneNumber&lt;/div&gt;&lt;div&gt;&lt;br&gt;&lt;/div&gt;&lt;/div&gt;" style="text;strokeColor=none;align=left;fillColor=none;html=1;verticalAlign=middle;whiteSpace=wrap;rounded=0;fontSize=13;spacingTop=0;spacing=2;strokeWidth=1;spacingBottom=0;horizontal=1;" vertex="1" parent="lWtACIqkjUSFrE5aZ776-12">
          <mxGeometry x="10" y="30" width="130" height="180" as="geometry" />
        </mxCell>
        <mxCell id="lWtACIqkjUSFrE5aZ776-14" value="Team" style="swimlane;whiteSpace=wrap;html=1;" vertex="1" parent="1">
          <mxGeometry x="-225" y="350" width="140" height="100" as="geometry" />
        </mxCell>
        <mxCell id="lWtACIqkjUSFrE5aZ776-15" value="+ id&lt;div&gt;&lt;br&gt;&lt;div&gt;+ name&lt;/div&gt;&lt;/div&gt;" style="text;strokeColor=none;align=left;fillColor=none;html=1;verticalAlign=middle;whiteSpace=wrap;rounded=0;fontSize=13;spacingTop=0;spacing=2;strokeWidth=1;spacingBottom=0;horizontal=1;" vertex="1" parent="lWtACIqkjUSFrE5aZ776-14">
          <mxGeometry x="10" y="30" width="130" height="60" as="geometry" />
        </mxCell>
        <mxCell id="lWtACIqkjUSFrE5aZ776-17" value="User Role" style="swimlane;whiteSpace=wrap;html=1;" vertex="1" parent="1">
          <mxGeometry x="285" y="300" width="140" height="90" as="geometry" />
        </mxCell>
        <mxCell id="lWtACIqkjUSFrE5aZ776-20" style="edgeStyle=orthogonalEdgeStyle;rounded=0;orthogonalLoop=1;jettySize=auto;html=1;entryX=0.5;entryY=0;entryDx=0;entryDy=0;endArrow=ERmany;endFill=0;exitX=1;exitY=0.5;exitDx=0;exitDy=0;startArrow=ERone;startFill=0;" edge="1" parent="1" source="lWtACIqkjUSFrE5aZ776-2" target="lWtACIqkjUSFrE5aZ776-17">
          <mxGeometry relative="1" as="geometry" />
        </mxCell>
        <mxCell id="lWtACIqkjUSFrE5aZ776-22" style="edgeStyle=orthogonalEdgeStyle;rounded=0;orthogonalLoop=1;jettySize=auto;html=1;entryX=0.5;entryY=0;entryDx=0;entryDy=0;endArrow=ERmany;endFill=0;startArrow=ERone;startFill=0;" edge="1" parent="1" source="lWtACIqkjUSFrE5aZ776-3" target="lWtACIqkjUSFrE5aZ776-7">
          <mxGeometry relative="1" as="geometry" />
        </mxCell>
      </root>
    </mxGraphModel>
  </diagram>
</mxfile>
